<?xml version="1.0" encoding="UTF-8" standalone="no"?>
<svg
   version="1.1"
   viewBox="-5 -10 120 18"
   id="svg2"
   sodipodi:docname="noun-paint-scratches-6650862.svg"
   width="120"
   height="18"
   inkscape:version="1.3.2 (091e20e, 2023-11-25, custom)"
   xmlns:inkscape="http://www.inkscape.org/namespaces/inkscape"
   xmlns:sodipodi="http://sodipodi.sourceforge.net/DTD/sodipodi-0.dtd"
   xmlns="http://www.w3.org/2000/svg"
   xmlns:svg="http://www.w3.org/2000/svg">
  <defs
     id="defs2" />
  <sodipodi:namedview
     id="namedview2"
     pagecolor="#ffffff"
     bordercolor="#cccccc"
     borderopacity="1"
     inkscape:showpageshadow="0"
     inkscape:pageopacity="1"
     inkscape:pagecheckerboard="0"
     inkscape:deskcolor="#d1d1d1"
     inkscape:zoom="5.1499987"
     inkscape:cx="60.000015"
     inkscape:cy="9.0291285"
     inkscape:window-width="1600"
     inkscape:window-height="829"
     inkscape:window-x="-8"
     inkscape:window-y="-8"
     inkscape:window-maximized="1"
     inkscape:current-layer="svg2" />
  <path
     d="m 60.290174,1.3475238 c -1.977869,-0.124275 0,0 0,0 C 59.78371,1.4892569 54.623111,2.008942 53.775432,1.9668475 53.796762,1.6710552 54.71907,1.57861 54.71907,1.57861 Z m -1.972547,-6.6225962 v 0.00103 l -0.223909,-0.00616 -3.342671,-0.06265 c -5.411163,0.068813 -10.145385,0.086272 -14.207578,0.055462 l -5.971004,-0.2126079 c -1.343483,0.03492 -2.036557,0.056487 -2.073816,0.06265 l -8.705929,0.6316286 c -1.727292,-0.347142 -3.310734,-0.5412608 -4.75019,-0.5823299 -0.410505,-0.011298 -0.805014,-0.00205 -1.194201,0.00308 -4.707472,0.057515 -9.1111393,0.3800079 -12.5444327,1.1174383 -6.23222734,1.3392957 -5.29392673,1.6751319 -9.057775,2.7730873 -2.9588886,0.86271489 0.047981,3.315242 1.844665,3.3830772 2.74024764,0.1027043 4.1690578,0.1304351 4.2277443,0.1489241 0.00532,-0.00103 0.015995,-0.00204 0.026655,-0.00103 0.1865955,0.00514 0.9756142,0.2125997 2.4577335,0.6090432 0.1439456,0.039029 0.3891867,0.069838 0.6557459,0.1047604 1.4128421,0.1828155 2.9161704,0.294767 4.4996126,0.3389388 0.079964,0.00204 0.1546044,0.00411 0.2345814,0.00616 0.730387,0.018487 1.434133,0.022595 2.111211,0.012324 0.453155,-0.00719 0.927641,-0.020544 1.412842,-0.041082 0.38385,-0.015406 0.773037,-0.035947 1.172883,-0.059569 h -0.0053 l 1.754043,-0.034919 c 3.476012,-0.4128736 5.667063,-0.6059669 6.578751,-0.580279 0.0853,0.00204 0.154603,0.010271 0.223909,0.013352 1.199537,0.056487 3.134811,0.2629266 5.789759,0.6295778 l 3.188038,0.2793596 c 1.242187,0.07292 2.415015,0.1253005 3.518594,0.1561128 1.231514,0.034919 2.367111,0.032866 3.422647,0.024649 1.306157,-0.01027 8.274107,-0.3512438 21.026125,-0.9613125 1.897893,-0.090381 3.950416,-0.07703 6.050982,-0.086271 2.100565,-0.010271 3.817211,0.2115745 5.971004,0.1776804 0.2559,-0.00411 0.618418,-0.013351 1.060914,-0.040054 0.613097,-0.035948 1.748584,-0.1386517 2.089784,-0.358448 0.111954,-0.073948 -0.07465,-0.1489241 -0.3412,-0.1889784 -0.60776,-0.090381 -1.023601,-0.107842 -1.023601,-0.107842 -0.853001,-0.034919 -1.615379,-0.029784 -2.329715,-0.012325 -0.645087,0.015406 -1.210196,0.034919 -1.700678,0.053406 -0.922306,0.033894 -2.249739,0.089353 -3.977168,0.160222 -0.549113,0.023622 -1.231513,0.044164 -2.041879,0.067785 l -0.5118,0.013352 -1.284837,0.028759 h -0.0053 c -0.0053,0 -0.01064,-0.00103 -0.01064,-0.00103 -0.607761,-0.016437 -1.274166,-0.051356 -1.455424,-0.1057903 -0.602437,-0.18179 3.113384,-0.4313573 3.113384,-0.4313573 4.760835,-0.074976 8.759293,-0.1858972 12.027308,-0.296818 1.044919,-0.034919 3.092093,-0.1211932 6.072274,-0.3173523 1.082246,-0.071895 6.333495,-0.29374171 6.333495,-0.29374171 2.868266,0.1458428 4.606204,0.23006081 6.829328,0.29271621 2.185865,0.061625 4.062467,0.090381 5.624478,0.064704 5.65642,-0.089353 10.35857,-0.31427621 14.12296,-0.65424051 -5.36858,0.095516 -8.75397,-0.2536821 -8.75397,-0.2536821 -1.63667,-0.1684361 -6.701442,-0.2002765 -10.902436,-0.3235311 -6.3922,-0.1879506 -11.79804,0.4816816 -14.266283,-0.032866 -0.970291,-0.2033581 -4.819385,-1.04555409 -4.723439,-1.19857749 4.185025,-0.193088 3.465366,-0.4508666 3.465366,-0.4508666 -0.405183,-0.1448147 0.687736,-0.2434122 0.687736,-0.2434122 1.028938,-0.1930881 1.801948,-0.1386517 1.876603,-0.1365983 0.02133,0.00103 0.03731,0.00205 0.05865,0.00308 0.22391,0.011298 0.479811,0.025678 0.730387,0.056487 0.853001,0.101679 1.487361,0.1766551 1.929965,0.2167094 0.346537,0.031838 0.623756,0.051352 0.837006,0.057515 0.07464,0.00205 0.143945,0.00308 0.202591,0.00103 0.757042,-0.021568 1.370125,-0.053408 1.844666,-0.095516 0.24524,-0.021568 0.453154,-0.048271 0.655745,-0.071895 0.117287,-0.013351 0.362519,-0.055462 0.69306,-0.1376263 0.229245,-0.058543 0.46915,-0.197195 0.629091,-0.4149246 0.06397,-0.082165 -0.02666,-0.1581661 -0.154604,-0.2269793 -0.133282,-0.068813 -0.341201,-0.1314633 -0.629092,-0.1869251 l -0.485146,-0.078057 -0.602437,-0.067785 c 0.01064,-0.00411 0.0053,-0.00822 -0.02133,-0.011298 -0.01064,-0.00205 -0.0693,-0.00514 -0.175937,-0.00924 l -0.15994,-0.00308 c -0.842342,-0.00616 -1.961902,0.00308 -3.353317,0.028759 l -0.522459,0.019515 c -0.5118,0.034919 -1.098242,0.069838 -1.759365,0.1057858 l -0.868996,0.033894 c -0.07996,0.00822 -1.604733,0.00205 -4.568945,-0.00308 -0.389186,-0.00103 -0.900987,0.029784 -1.562014,0.068813 -1.455424,0.087299 -2.718957,0.1756271 -3.779817,0.2711299 h -0.0053 c -3.593248,0.029784 -8.151547,0.043136 -13.679401,0.039029 -0.04266,-0.011298 -0.0853,-0.021568 -0.12795,-0.032866 l -0.21865,-0.068813 c -0.122618,-0.047245 -0.191918,-0.096544 -0.218586,-0.1458427 -0.016,-0.027731 0.122618,-0.099626 0.46915,-0.209521 0.143946,-0.044164 0.351859,-0.083193 0.581106,-0.1222188 0.453154,-0.07703 1.050255,-0.1448148 1.796623,-0.203358 0.367855,-0.028759 0.94896,-0.061625 1.74326,-0.054434 2.079138,0.019514 3.310735,0.045192 3.715945,0.038001 0.890314,-0.017461 1.828559,-0.059569 2.782966,-0.1458428 0.709054,-0.06265 0.970291,-0.1458427 0.735709,-0.2300608 -0.319882,-0.1140024 -0.82101,-0.1756271 -1.434133,-0.1930881 -0.03199,-0.00103 -0.06398,-0.00103 -0.09596,-0.00205 l -0.0693,-0.00205 c -0.181258,-0.00411 -0.37319,-0.011298 -0.55445,0 -0.943636,0.056487 -2.159115,0.1294099 -3.694516,0.1920601 -0.783697,0.030812 -1.530079,0.041082 -2.228447,0.036973 -0.314546,-0.00205 -0.645088,-0.00719 -0.991611,-0.017461 -0.271895,-0.00822 -0.559786,-0.015405 -0.852999,-0.030812 -0.186596,-0.00924 -0.357196,-0.023622 -0.527797,-0.03492 h -0.01064 l 2.910846,-0.964415 c -0.229245,-0.1776805 -1.236851,-0.3574224 -3.02822,-0.5381845 v 0.00103 z"
     id="path1"
     style="fill:#d96666;fill-opacity:1;stroke-width:0.999997" />
</svg>
